<?xml version="1.0" encoding="utf-8"?>
<svg version="1.1" id="Layer_1"
xmlns="http://www.w3.org/2000/svg"
xmlns:xlink="http://www.w3.org/1999/xlink"
width="550px" height="400px"
xml:space="preserve">
<g id="PathID_1" transform="matrix(0.902392, 0, 0, 0.902392, 271.9, 153.9)" opacity="1">
<path style="fill:#9B75CB;fill-opacity:1" d="M37.4 -35.3Q38.7 -33.8 38.25 -31.65L21.3 31.6Q20.85 33.75 19 35.25Q17.15 36.8 15 36.8L13.35 36.55Q12.85 36.35 12.4 36L11.65 35.25Q10.4 33.75 10.85 31.6L27.8 -31.65Q28.25 -33.8 30.05 -35.3Q31.9 -36.85 34.05 -36.85Q36.2 -36.85 37.4 -35.3M21.9 -31.65L4.95 31.6L4.65 32.6Q4.05 34.1 2.7 35.25L0.75 36.45L-1.3 36.8Q-3.45 36.8 -4.65 35.25Q-5.95 33.75 -5.5 31.6L-5.45 31.6L11.45 -31.65Q11.85 -33.55 13.35 -34.95L13.75 -35.3Q15.6 -36.85 17.75 -36.85Q19.9 -36.85 21.1 -35.3Q22.35 -33.8 21.9 -31.65M4.65 -35.3Q5.9 -33.8 5.45 -31.65L-11.5 31.6L-12 33.05Q-12.6 34.25 -13.8 35.25Q-15.6 36.8 -17.8 36.8L-19.75 36.45L-21.15 35.25Q-22.4 33.75 -21.95 31.6L-21.9 31.6L-5 -31.65Q-4.55 -33.8 -2.7 -35.3L-1.3 -36.25Q-0.1 -36.85 1.25 -36.85Q3.45 -36.85 4.65 -35.3M66.7 -36.85Q68.85 -36.85 70.05 -35.3Q71.3 -33.8 70.85 -31.65L53.9 31.6Q53.45 33.75 51.65 35.25Q49.8 36.8 47.65 36.8L47.3 36.8Q45.4 36.7 44.3 35.25Q43.05 33.75 43.5 31.6L60.45 -31.65Q60.9 -33.8 62.7 -35.3L63.75 -36.05Q65.15 -36.85 66.7 -36.85M79.05 -35.3Q80.85 -36.85 83 -36.85Q85.2 -36.85 86.4 -35.3Q87.65 -33.8 87.2 -31.65L70.25 31.6Q69.8 33.75 67.95 35.25Q66.9 36.2 65.7 36.6L63.95 36.8Q61.8 36.8 60.6 35.25Q59.35 33.75 59.8 31.6L59.85 31.6L76.75 -31.65Q77.2 -33.8 79.05 -35.3M53.75 -35.3Q55 -33.8 54.55 -31.65L37.6 31.6Q37.15 33.75 35.3 35.25Q33.5 36.8 31.35 36.8Q29.9 36.8 28.85 36.15L28.85 36.1L27.95 35.25Q26.7 33.75 27.15 31.6L27.2 31.6L44.1 -31.65Q44.4 -33.1 45.35 -34.3L46.4 -35.3Q48.2 -36.85 50.4 -36.85Q52.55 -36.85 53.75 -35.3M106.2 -26.55L111.85 -5.5L127.15 -5.5L127.15 -5.3Q128.3 -5 129.4 -4.25Q131.4 -2.9 131.95 -0.8Q132.5 1.3 131.3 2.85Q130.15 4.45 128 4.6L128 4.55L127.15 4.55L127.15 4.6L109.5 4.6Q107.25 4.75 105.35 3.35Q103.4 1.95 102.85 -0.15L102.75 -0.7L102.7 -0.7L100.95 -7.15L106.15 -26.55L106.2 -26.55M103.5 -31.65L86.55 31.6Q86.1 33.75 84.3 35.25Q82.45 36.8 80.3 36.8L78.3 36.4L76.95 35.25Q75.65 33.75 76.1 31.6L76.15 31.6L93.05 -31.65Q93.5 -33.8 95.35 -35.3Q97.2 -36.85 99.35 -36.85Q101.5 -36.85 102.7 -35.3Q103.95 -33.8 103.5 -31.65M-128 -4.95L-128 -4.9L-109.5 -4.95Q-107.25 -5.1 -105.35 -3.7Q-103.4 -2.3 -102.85 -0.2L-102.7 0.35L-100.95 6.8L-106.15 26.2L-106.2 26.2L-111.8 5.15L-127.1 5.15L-127.1 5Q-128.3 4.65 -129.4 3.9Q-131.4 2.55 -131.95 0.45Q-132.5 -1.65 -131.3 -3.2Q-130.15 -4.8 -128 -4.95M-84.3 -35.3Q-82.5 -36.85 -80.35 -36.85Q-78.15 -36.85 -76.95 -35.3Q-75.7 -33.8 -76.15 -31.65L-93.1 31.65Q-93.55 33.8 -95.4 35.3Q-97.2 36.85 -99.4 36.85Q-101.55 36.85 -102.75 35.3Q-104 33.8 -103.55 31.65L-103.5 31.65L-86.6 -31.65Q-86.15 -33.8 -84.3 -35.3M-47.7 -36.85Q-45.55 -36.85 -44.35 -35.3Q-43.05 -33.8 -43.5 -31.65L-60.45 31.6Q-60.9 33.75 -62.75 35.25Q-63.95 36.3 -65.25 36.65L-66.75 36.8Q-68.9 36.8 -70.1 35.25Q-71.35 33.75 -70.9 31.6L-53.95 -31.65Q-53.5 -33.8 -51.7 -35.3L-49.75 -36.45L-47.7 -36.85M-59.85 -31.65L-76.8 31.6Q-77.25 33.75 -79.05 35.25Q-80.9 36.8 -83.05 36.8Q-85.2 36.8 -86.4 35.25Q-87.7 33.8 -87.25 31.6L-87.2 31.6L-70.3 -31.65Q-69.85 -33.8 -68 -35.3L-67.2 -35.9Q-65.7 -36.85 -64 -36.85Q-61.85 -36.85 -60.65 -35.3Q-59.4 -33.8 -59.85 -31.65M-10.9 -31.65L-27.85 31.6Q-28.3 33.75 -30.1 35.25Q-31.15 36.15 -32.35 36.55L-34.1 36.8Q-36.25 36.8 -37.45 35.25Q-38.7 33.75 -38.25 31.6L-21.3 -31.65Q-20.85 -33.8 -19.05 -35.3Q-17.2 -36.85 -15.05 -36.85L-13.9 -36.75Q-12.55 -36.4 -11.7 -35.3Q-10.45 -33.8 -10.9 -31.65M-35.35 -35.3L-34.25 -36.1Q-32.9 -36.85 -31.35 -36.85Q-29.2 -36.85 -28 -35.3Q-26.75 -33.8 -27.2 -31.65L-44.15 31.6Q-44.6 33.75 -46.45 35.25L-47.85 36.2Q-49.05 36.8 -50.4 36.8Q-52.6 36.8 -53.8 35.25Q-55.05 33.75 -54.6 31.6L-54.55 31.6L-37.65 -31.65Q-37.2 -33.8 -35.35 -35.3" />
</g>
<g id="PathID_2" transform="matrix(0.902392, 0, 0, 0.902392, 271.9, 153.9)" opacity="1">
</g>
<g id="PathID_3" transform="matrix(-2.2931, -0.34684, -0.422807, 2.79535, 269.75, 122.8)" opacity="1">
<linearGradient
id="LinearGradID_1" gradientUnits="userSpaceOnUse" gradientTransform="matrix(-2.98808e-009, 0.0683594, -0.0683594, -2.98808e-009, 0, 0)" spreadMethod ="pad" x1="-819.2" y1="0" x2="819.2" y2="0" >
<stop  offset="0.396078" style="stop-color:#FFFFFF;stop-opacity:0" />
<stop  offset="1" style="stop-color:#FFFFFF;stop-opacity:1" />
</linearGradient>
<path style="fill:url(#LinearGradID_1) " d="M38.55 -3.2Q48.5 -3.2 55.45 -5.55L56 -5.75L56 14.85Q48.15 16.6 38.55 16.6Q19.6 16.6 -4.35 9.7Q-26.65 3.2 -42.6 3.2Q-50.7 3.25 -56 4.85L-56 -15.45Q-49.9 -16.6 -42.6 -16.6Q-23.95 -16.6 1.15 -9.35Q22.5 -3.2 38.55 -3.2" />
</g>
<g id="PathID_4" transform="matrix(-2.2931, -0.34684, -0.422807, 2.79535, 269.75, 122.8)" opacity="1">
</g>
<g id="PathID_5" transform="matrix(0.660719, 0, 0, 0.808031, 270.7, 194.55)" opacity="1">
<path style="fill:#223F8F;fill-opacity:1" d="M247.7 19.9Q145.1 -2.85 -0.05 -2.85Q-145.25 -2.85 -247.9 19.9L-248.3 20Q-234.15 13.95 -216.5 8.35Q-126.85 -20.05 -0.05 -20.05Q126.75 -20.05 216.4 8.35Q234.1 13.95 248.3 20.05L247.7 19.9" />
</g>
<g id="PathID_6" transform="matrix(0.660719, 0, 0, 0.808031, 270.7, 194.55)" opacity="1">
</g>
<g id="PathID_7" transform="matrix(0.710241, 0, 0, 0.710241, 85.4, 239.45)" opacity="1">
<path style="fill:#AC1C7A;fill-opacity:1" d="M18.3 -16.4L17.25 -16.4L17.25 0L7 0L7 -16.4L2.55 -16.4L2.55 -26.55L7 -26.55L7 -40.95L17.25 -40.95L17.25 -26.55L18.9 -26.55Q23.1 -26.55 26.1 -29.6Q29.15 -32.6 29.15 -36.85L29.15 -40.95L39.3 -40.95L39.3 -36.85Q39.3 -28.05 32.95 -22Q38.25 -18.3 41.35 -12.65Q44.45 -6.75 44.45 0L34.3 0Q34.3 -6.75 29.65 -11.6Q24.95 -16.4 18.3 -16.4" />
</g>
<g id="PathID_8" transform="matrix(0.710241, 0, 0, 0.710241, 85.4, 239.45)" opacity="1">
</g>
<g id="PathID_9" transform="matrix(0.710241, 0, 0, 0.710241, 116.35, 239.45)" opacity="1">
<path style="fill:#AC1C7A;fill-opacity:1" d="M11.55 -0.05Q7.3 -0.05 4.3 -3Q1.3 -6 1.3 -10.25L1.3 -15.35L11.55 -15.35L11.55 -10.25L24.95 -10.25L24.95 -40.9L35.2 -40.9L35.2 -10.25Q35.2 -6.65 31.9 -3.3Q28.6 0 24.95 0L11.55 -0.05" />
</g>
<g id="PathID_10" transform="matrix(0.710241, 0, 0, 0.710241, 116.35, 239.45)" opacity="1">
</g>
<g id="PathID_11" transform="matrix(0.710241, 0, 0, 0.710241, 152.3, 239.45)" opacity="1">
<path style="fill:#AC1C7A;fill-opacity:1" d="M31.4 -40.95L31.4 -30.75L14.05 -30.75L14.05 -25.5L23.7 -25.5Q27.95 -25.5 30.95 -22.5Q33.95 -19.5 33.95 -15.3L33.95 -10.2Q33.95 -6 30.95 -3Q27.95 0 23.7 0L3.8 0L3.8 -10.2L23.7 -10.2L23.7 -15.3L14.05 -15.3Q9.85 -15.3 6.85 -18.3Q3.8 -21.25 3.8 -25.5L3.8 -30.75Q3.8 -34.95 6.85 -37.95Q9.85 -40.95 14.05 -40.95L31.4 -40.95" />
</g>
<g id="PathID_12" transform="matrix(0.710241, 0, 0, 0.710241, 152.3, 239.45)" opacity="1">
</g>
<g id="PathID_13" transform="matrix(0.710241, 0, 0, 0.710241, 176.4, 239.45)" opacity="1">
<path style="fill:#AC1C7A;fill-opacity:1" d="M14.05 -0.05Q9.85 -0.05 6.85 -3Q3.8 -6 3.8 -10.25L3.8 -40.95L14.05 -40.95L14.05 -10.25L27.45 -10.25L27.45 -40.95L37.7 -40.95L37.7 -10.25Q37.7 -6 34.7 -3Q31.7 0 27.45 0L14.05 -0.05" />
</g>
<g id="PathID_14" transform="matrix(0.710241, 0, 0, 0.710241, 176.4, 239.45)" opacity="1">
</g>
<g id="PathID_15" transform="matrix(0.710241, 0, 0, 0.710241, 203.45, 239.45)" opacity="1">
<path style="fill:#AC1C7A;fill-opacity:1" d="M17.75 -20.4L26.95 -20.4Q29.05 -20.4 30.55 -21.9Q32 -23.4 32 -25.55Q32 -27.65 30.55 -29.15Q29.05 -30.7 26.95 -30.7Q27.9 -30.75 17.75 -30.75L17.75 -20.4M17.75 -10.15L17.75 0L7.5 0L7.5 -10.15L2.55 -10.15L2.55 -20.4L7.5 -20.4L7.5 -40.95L26.95 -40.95Q33.3 -40.95 37.8 -36.4Q42.25 -31.85 42.25 -25.5Q42.25 -19.15 37.8 -14.65Q33.3 -10.15 26.95 -10.15L17.75 -10.15" />
</g>
<g id="PathID_16" transform="matrix(0.710241, 0, 0, 0.710241, 203.45, 239.45)" opacity="1">
</g>
<g id="PathID_17" transform="matrix(0.710241, 0, 0, 0.710241, 232.85, 239.45)" opacity="1">
<path style="fill:#AC1C7A;fill-opacity:1" d="M17.75 -20.4L26.95 -20.4Q29.05 -20.4 30.55 -21.9Q32 -23.4 32 -25.55Q32 -27.65 30.55 -29.15Q29.05 -30.7 26.95 -30.7Q27.9 -30.75 17.75 -30.75L17.75 -20.4M17.75 -10.15L17.75 0L7.5 0L7.5 -10.15L2.55 -10.15L2.55 -20.4L7.5 -20.4L7.5 -40.95L26.95 -40.95Q33.3 -40.95 37.8 -36.4Q42.25 -31.85 42.25 -25.5Q42.25 -19.15 37.8 -14.65Q33.3 -10.15 26.95 -10.15L17.75 -10.15" />
</g>
<g id="PathID_18" transform="matrix(0.710241, 0, 0, 0.710241, 232.85, 239.45)" opacity="1">
</g>
<g id="PathID_19" transform="matrix(0.710241, 0, 0, 0.710241, 262.25, 239.45)" opacity="1">
<path style="fill:#AC1C7A;fill-opacity:1" d="M33.6 0L7.05 0L7.05 -15.3L2.55 -15.3L2.55 -25.5L7.05 -25.5L7.05 -40.95L33.6 -40.95L33.6 -30.75L17.3 -30.75L17.3 -25.5L33.6 -25.5L33.6 -15.3L17.3 -15.3L17.3 -10.2L33.6 -10.2L33.6 0" />
</g>
<g id="PathID_20" transform="matrix(0.710241, 0, 0, 0.710241, 262.25, 239.45)" opacity="1">
</g>
<g id="PathID_21" transform="matrix(0.710241, 0, 0, 0.710241, 286.35, 239.45)" opacity="1">
<path style="fill:#AC1C7A;fill-opacity:1" d="M17.75 -20.4L26.95 -20.4Q29.05 -20.4 30.55 -21.9Q32 -23.4 32 -25.55Q32 -27.65 30.55 -29.15Q29.05 -30.7 26.95 -30.7Q27.9 -30.75 17.75 -30.75L17.75 -20.4M27.2 -10.15L17.75 -10.15L17.75 0L7.5 0L7.5 -10.15L2.55 -10.15L2.55 -20.4L7.5 -20.4L7.5 -40.95L26.95 -40.95Q33.3 -40.95 37.8 -36.4Q42.25 -31.9 42.25 -25.55Q42.25 -19.7 38.4 -15.35Q46.4 -9.55 48.75 0L38.1 0Q36.6 -6 31.75 -8.7Q29.75 -9.8 27.2 -10.15" />
</g>
<g id="PathID_22" transform="matrix(0.710241, 0, 0, 0.710241, 286.35, 239.45)" opacity="1">
</g>
<g id="PathID_23" transform="matrix(0.710241, 0, 0, 0.710241, 330.1, 239.45)" opacity="1">
<path style="fill:#AC1C7A;fill-opacity:1" d="M36.45 -30.7L36.45 0L26.2 0L26.2 -30.7L15.35 -30.7L15.35 0L5.1 0L5.1 -40.95L15.35 -40.95L15.35 -37.45Q18.45 -40.9 23 -40.9L26.2 -40.95Q29.05 -40.95 31.45 -39.5Q33.85 -38.05 35.2 -35.6Q36.5 -38 38.9 -39.45Q41.25 -40.95 44.1 -40.95L47.3 -40.95Q51.6 -41 54.6 -38Q57.55 -34.95 57.55 -30.7L57.55 0L47.3 0L47.3 -30.7L36.45 -30.7" />
</g>
<g id="PathID_24" transform="matrix(0.710241, 0, 0, 0.710241, 330.1, 239.45)" opacity="1">
</g>
<g id="PathID_25" transform="matrix(0.710241, 0, 0, 0.710241, 371.25, 239.45)" opacity="1">
<path style="fill:#AC1C7A;fill-opacity:1" d="M16.05 -23.9L16.05 -20.5L29.65 -20.5L29.65 -23.9Q29.65 -26.7 27.65 -28.7Q25.65 -30.75 22.85 -30.75Q19.95 -30.75 18 -28.7Q16.05 -26.7 16.05 -23.9M16.05 0L5.8 0L5.8 -10.3L1.3 -10.3L1.3 -20.5L5.8 -20.5L5.8 -23.9Q5.8 -30.95 10.8 -35.95Q15.75 -40.95 22.85 -40.95Q29.85 -40.95 34.85 -35.95Q39.9 -30.95 39.9 -23.9L39.9 0L29.65 0L29.65 -10.3L16.05 -10.3L16.05 0" />
</g>
<g id="PathID_26" transform="matrix(0.710241, 0, 0, 0.710241, 371.25, 239.45)" opacity="1">
</g>
<g id="PathID_27" transform="matrix(0.710241, 0, 0, 0.710241, 399.85, 239.45)" opacity="1">
<path style="fill:#AC1C7A;fill-opacity:1" d="M17.75 -20.4L26.95 -20.4Q29.05 -20.4 30.55 -21.9Q32 -23.4 32 -25.55Q32 -27.65 30.55 -29.15Q29.05 -30.7 26.95 -30.7Q27.9 -30.75 17.75 -30.75L17.75 -20.4M27.2 -10.15L17.75 -10.15L17.75 0L7.5 0L7.5 -10.15L2.55 -10.15L2.55 -20.4L7.5 -20.4L7.5 -40.95L26.95 -40.95Q33.3 -40.95 37.8 -36.4Q42.25 -31.9 42.25 -25.55Q42.25 -19.7 38.4 -15.35Q46.4 -9.55 48.75 0L38.1 0Q36.6 -6 31.75 -8.7Q29.75 -9.8 27.2 -10.15" />
</g>
<g id="PathID_28" transform="matrix(0.710241, 0, 0, 0.710241, 399.85, 239.45)" opacity="1">
</g>
<g id="PathID_29" transform="matrix(0.710241, 0, 0, 0.710241, 432.95, 239.45)" opacity="1">
<path style="fill:#AC1C7A;fill-opacity:1" d="M21.9 0L11.65 0L11.65 -30.7L1.25 -30.7L1.25 -40.9L32.3 -40.9L32.3 -30.7L21.9 -30.7L21.9 0" />
</g>
<g id="PathID_30" transform="matrix(0.710241, 0, 0, 0.710241, 432.95, 239.45)" opacity="1">
</g>
<g id="PathID_31" transform="matrix(0.345613, 0.123718, -0.123718, 0.345613, 406.5, 140.1)" opacity="1">
<path style="fill:#AC1C7A;fill-opacity:1" d="M122.95 18.9L111 77.5L111 77.8L107.2 94.4L107.2 94.85L107.2 95.2Q106.8 95.2 106.8 95.35L106.8 95.65L99.35 133L99.35 133.05L100.6 134.55Q103.9 137.75 103.9 142.35Q103.9 146.9 100.6 150.35Q97.2 153.5 92.65 153.5Q88.1 153.5 84.75 150.35Q81.5 146.9 81.5 142.35Q81.5 137.75 84.75 134.55Q86.8 132.3 89.05 131.55L89.35 130.8L90.4 125.4L13.5 125.4L14 129.55L15.95 129.25Q20.6 129.25 24.15 133Q27.2 136.05 27.2 140.55Q27.2 145.4 24.45 148.75Q20.7 151.95 16.1 151.95Q11.35 151.95 8.05 148.75Q4.75 145.4 4.75 140.55L4 121.1Q3.7 120.4 5.55 117.9Q7.25 115.4 7.8 115.65L92.4 115.65L95.95 99L5 99Q3.05 99 1.5 97.45Q0 95.95 0 93.85L0 43.6Q0 41.9 1.25 40.4Q2.25 39 4.3 38.85L112.8 18.9L113.75 13.85Q114.05 12.6 115.15 11.5Q115.85 10.35 117.35 10L135.25 4.95Q135.7 3.45 136.95 2.3Q139.3 0 142.35 0Q145.7 0 147.95 2.3Q150 4.3 150 7.35Q150 10.5 147.95 12.75Q145.7 14.9 142.35 14.9Q140.8 14.9 139.55 14.3L122.95 18.9M110.55 29.7L93.5 32.75L93.5 47.9L106.7 47.9L110.55 29.7M88.3 33.6L71.55 36.75L71.55 47.9L88.3 47.9L88.3 33.6M101 74L105.7 53.15L93.5 53.15L93.5 74L101 74M88.3 53.15L71.55 53.15L71.55 74L88.3 74L88.3 53.15M88.3 79L71.55 79L71.55 88.75L88.3 88.75L88.3 79M93.5 79L93.5 88.75L97.95 88.75L100.15 79L93.5 79M66.4 37.5L48.85 40.85L48.85 47.9L66.4 47.9L66.4 37.5M43.7 41.9L28.5 44.7L28.5 47.9L43.7 47.9L43.7 41.9M23.35 47.9L23.35 45.4L10.1 47.9L23.35 47.9M28.5 74L43.7 74L43.7 53.15L28.5 53.15L28.5 74M23.35 53.15L10.1 53.15L10.1 74L23.35 74L23.35 53.15M10.1 88.75L23.35 88.75L23.35 79L10.1 79L10.1 88.75M28.5 88.75L43.7 88.75L43.7 79L28.5 79L28.5 88.75M66.4 53.15L48.85 53.15L48.85 74L66.4 74L66.4 53.15M48.85 88.75L66.4 88.75L66.4 79L48.85 79L48.85 88.75M10.3 135.1Q8 137.35 8 140.65Q8 143.85 10.3 146.2Q12.6 148.45 15.85 148.45Q19.05 148.45 21.35 146.2Q23.65 143.85 23.65 140.65Q23.65 137.35 21.35 135.1Q19.05 132.75 15.85 132.75Q12.6 132.75 10.3 135.1M84.75 142.5Q84.75 145.65 87.05 148Q89.35 150.35 92.6 150.35Q95.85 150.35 98.1 148Q100.4 145.65 100.4 142.5Q100.4 139.3 98.1 137Q95.85 134.7 92.6 134.7Q89.35 134.7 87.05 137Q84.75 139.3 84.75 142.5" />
</g>
<g id="PathID_32" transform="matrix(0.345613, 0.123718, -0.123718, 0.345613, 406.5, 140.1)" opacity="1">
</g>
</svg>
